# xmcd
#
# Track frame offsets:
#	150
#	16862
#	30958
#	48630
#	65540
#	80994
#	100603
#	116720
#	130209
#	148052
#	160822
#	177583
#
# Disc length: 2569 seconds
#
# Revision: 1
# Processed by: cddbd v1.5.2PL0 Copyright (c) Steve Scherf et al.
# Submitted via: audiograbber 1.83.01
#
DISCID=a30a070c
DTITLE=Bret Michaels - Custom Built
DYEAR=2010
DGENRE=Country Rock
TTITLE0=Riding Aganst The Wind
TTITLE1=Lie To Me
TTITLE2=Nothing To Lose
TTITLE3=Wasted Time
TTITLE4=What I Got
TTITLE5=Every Rose
TTITLE6=Go That Far
TTITLE7=Driven
TTITLE8=Open Road
TTITLE9=Rock'n My Country
TTITLE10=Nothing To Lose
TTITLE11=I'd Die For You
EXTD=
EXTT0=
EXTT1=
EXTT2=
EXTT3=
EXTT4=
EXTT5=
EXTT6=
EXTT7=
EXTT8=
EXTT9=
EXTT10=
EXTT11=
PLAYORDER=
